<?xml version="1.0" encoding="UTF-8"?>
<svg id="Layer_2" data-name="Layer 2" xmlns="http://www.w3.org/2000/svg" viewBox="0 0 263.99 335.74">
  <defs>
    <style>
      .cls-1 {
        fill: #00ffd1;
      }

      .cls-2 {
        fill: #078e74;
      }
    </style>
  </defs>
  <g id="Layer_1" data-name="Layer 1">
    <g>
      <path class="cls-2" d="M50.74,301.36c-1.34-.39-2.77-.96-4.02-1.6-12.03-5.86-13.62-21.24-11.77-33.2,3.05-19.74,12.93-37.66,22.56-55.16,1.61-2.88,1.14-6.6-1.34-9-2.97-2.87-7.71-2.8-10.58.17-9.58,9.94-18.4,20.62-25.58,32.68-7.52,12.89-13.45,27.73-14.11,42.98-.65,11.87,2.13,23.49,8.13,33.13l46.52-8.45c-3.36-.19-6.68-.7-9.8-1.56Z"/>
      <path class="cls-1" d="M232.81,0c-17.19,0-31.17,13.98-31.17,31.17s13.98,31.17,31.17,31.17,31.17-13.98,31.17-31.17S250,0,232.81,0Z"/>
      <path class="cls-2" d="M85.72,150.85c-1.12-.53-1.7-1.89-2.16-2.96-.61-1.41-1.04-2.95-1.4-4.44-1.48-6.12-1.88-12.45-3.34-19.29-4.81-18.2-20.28-27.44-38.42-21.56-5.93,1.62-12.4,6-17.82,6.96-.3.07-.72.09-1.02.13-.62.07-1.4-.02-2.07-.17-1.08-.24-1.97-.49-2.75-1.43-2.04-3.14-2.11-7.05-2.51-11.51-.79-8.73-13.19-8.72-13.97.03-.9,10.91.18,22.61,11.6,28.33,8.19,4.19,17.12,2.74,24.74.13,4.41-1.45,14.21-5.96,17.33-.28.9,1.63,1.06,3.56,1.2,5.42,1.03,13.72.75,28.28,10.41,39.26l22.59-18.55c-.81.23-1.65.3-2.38-.04Z"/>
      <path class="cls-1" d="M182.26,82.11c-8.59,1.35-16.78,4.79-24.28,9.07-12.75,7.24-23.64,17.3-34.02,26.99-5.22,4.96-12.9,12.21-18.1,17.16-3.42,3.26-6.91,6.78-10.65,9.73l-29.7,24.39c1.36,1.41,2.87,2.68,4.53,3.76,9.15,6.38,21.59,6.22,31.4,1.87,11.26-4.87,19.53-13.16,28.5-20.81,6.81-5.86,15.29-13.4,22.2-19.01,8.16-6.56,15.69-12.3,25.05-16.04,5.66-2.26,13.1-3.46,18.33,0,1.73,1.2,2.56,2.63,3.34,4.46,1.22,2.61,1.66,5.84,1.92,8.94.52,11.91-2.89,23.85-6.74,35.19-12.98,37.63-36.66,70.27-65.24,98.19-15.71,15.33-35.81,31.11-57.25,34.99-.7.13-1.41.24-2.12.34l-55.41,10.06c4.59,6.94,10.91,12.78,18.86,16.85,20.68,10.38,45.4,9.25,66.6,1.34,24.39-8.97,44.69-25.07,63.11-42.83,30.52-29.56,55.49-65.42,69.47-105.83,3.68-10.66,6.84-21.39,8.25-32.78,1.87-14.37.31-30.33-7.3-43.17-10.06-18.1-31.01-26.28-50.76-22.84Z"/>
    </g>
  </g>
</svg>