<svg width="176" height="51" viewBox="0 0 176 51" fill="none" xmlns="http://www.w3.org/2000/svg">
<path d="M40.1412 15.3796H36.1663V10.7167H40.1412V15.3796ZM40.1412 39H36.1663V17.8257H40.1412V39ZM64.0399 39H60.065V27.4573C60.065 22.9855 58.3068 20.8834 54.7905 20.8834C51.3124 20.8834 49.2103 23.4442 49.2103 27.4191V39H45.2353V17.8257H48.9427V20.0807H49.0192C50.5862 18.055 52.7648 17.2524 55.2109 17.2524C60.2943 17.2524 64.0399 20.4629 64.0399 26.3107V39ZM73.5578 39H69.5828V21.4567H66.7163V17.8257H69.5828V10.7167H73.5578V17.8257H77.0359V21.4567H73.5578V39ZM82.6292 27.0751H96.3123C96.0065 23.4824 92.8342 20.8834 89.4325 20.8834C86.1838 20.8834 82.935 23.4442 82.6292 27.0751ZM100.173 30.1328H82.6292C83.5465 33.6491 86.3367 35.9041 89.5854 35.9041C92.0698 35.9041 94.4012 34.6046 95.6243 32.3496H99.5993C97.9558 36.7068 93.9808 39.5351 89.4325 39.5351C83.4701 39.5351 78.6543 34.2606 78.6543 28.604C78.6543 21.9153 83.6994 17.2524 89.3179 17.2524C95.5479 17.2524 100.287 22.0682 100.287 28.1453C100.287 28.7951 100.287 29.4066 100.173 30.1328ZM108.222 39H104.247V17.8257H107.954V19.7367H108.031C108.986 18.3226 110.63 17.4053 113.42 17.2524V21.342C109.98 21.4567 108.222 23.5588 108.222 27.1133V39ZM121.286 15.3796H117.311V10.7167H121.286V15.3796ZM121.286 39H117.311V17.8257H121.286V39ZM147.554 46.0708H143.579V36.057H143.503C141.936 38.2356 139.298 39.5351 136.432 39.5351C130.202 39.5351 125.348 34.5664 125.348 28.3746C125.348 22.2211 130.125 17.2524 136.317 17.2524C139.681 17.2524 142.7 19.0106 143.808 20.654H143.885V17.8257H147.554V46.0708ZM136.661 35.9041C140.751 35.9041 143.923 32.5025 143.923 28.4893C143.923 24.2468 140.751 20.8834 136.546 20.8834C132.533 20.8834 129.323 24.0939 129.323 28.3746C129.323 32.6554 132.533 35.9041 136.661 35.9041ZM174.405 28.5657C174.329 34.2224 169.589 39.5351 162.824 39.5351C156.862 39.5351 151.549 34.4517 151.549 28.4893C151.549 22.03 156.632 17.2524 163.13 17.2524C168.978 17.2524 174.481 21.8389 174.405 28.5657ZM170.43 28.3364C170.43 24.2086 167.105 20.8834 162.939 20.8834C158.964 20.8834 155.524 24.2468 155.524 28.3746C155.524 32.3878 158.849 35.9041 162.862 35.9041C167.028 35.9041 170.43 32.6171 170.43 28.3364Z" fill="black"/>
<path d="M0 2.87744V45.2816L29.1042 2.87744H0Z" fill="url(#paint0_linear_185_3163)"/>
<path d="M0 45.2816V2.87744L29.1042 45.2816H0Z" fill="url(#paint1_linear_185_3163)"/>
<path opacity="0.67" d="M0 45.2816V2.87744L29.1042 45.2816H0Z" fill="black"/>
<defs>
<linearGradient id="paint0_linear_185_3163" x1="14.5543" y1="45.2817" x2="14.5543" y2="2.87751" gradientUnits="userSpaceOnUse">
<stop offset="0.06" stop-color="#220163"/>
<stop offset="0.5" stop-color="#5A09FF"/>
<stop offset="1" stop-color="#AD85FF"/>
</linearGradient>
<linearGradient id="paint1_linear_185_3163" x1="14.5543" y1="45.2817" x2="14.5543" y2="2.87751" gradientUnits="userSpaceOnUse">
<stop stop-color="#AD85FF"/>
<stop offset="0.5" stop-color="#5A09FF"/>
<stop offset="1" stop-color="#220163"/>
</linearGradient>
</defs>
</svg>
